<svg width="35" height="35" viewBox="0 0 35 35" fill="none" xmlns="http://www.w3.org/2000/svg">
<g id="Group 1187">
<rect id="image 1" width="35" height="35" rx="17.5" fill="white"/>
<g id="Profile">
<circle id="Ellipse_736" cx="17.5791" cy="12.778" r="4.77803" stroke="#002842" stroke-width="1.5" stroke-linecap="round" stroke-linejoin="round"/>
<path id="Path_33945" fill-rule="evenodd" clip-rule="evenodd" d="M10 24.2013C9.99873 23.8654 10.0739 23.5336 10.2197 23.2311C10.6774 22.3157 11.968 21.8306 13.0389 21.6109C13.8113 21.4461 14.5943 21.336 15.3822 21.2814C16.8408 21.1533 18.3079 21.1533 19.7666 21.2814C20.5544 21.3366 21.3374 21.4467 22.1099 21.6109C23.1808 21.8306 24.4714 22.27 24.9291 23.2311C25.2224 23.8479 25.2224 24.5639 24.9291 25.1807C24.4714 26.1418 23.1808 26.5812 22.1099 26.7917C21.3384 26.9633 20.5551 27.0766 19.7666 27.1304C18.5794 27.231 17.3866 27.2494 16.1968 27.1853C15.9222 27.1853 15.6568 27.1853 15.3822 27.1304C14.5966 27.0772 13.8163 26.964 13.0481 26.7917C11.968 26.5812 10.6865 26.1418 10.2197 25.1807C10.0746 24.8746 9.99955 24.54 10 24.2013Z" stroke="#002842" stroke-width="1.5" stroke-linecap="round" stroke-linejoin="round"/>
</g>
</g>
</svg>
